<?xml version="1.0" encoding="UTF-8"?>
<svg width="448px" height="512px" viewBox="0 0 448 512" version="1.1" xmlns="http://www.w3.org/2000/svg" xmlns:xlink="http://www.w3.org/1999/xlink">
    <!-- Generator: Sketch 53.2 (72643) - https://sketchapp.com -->
    <title>recipe-book-icon-green</title>
    <desc>Created with Sketch.</desc>
    <g id="Page-1" stroke="none" stroke-width="1" fill="none" fill-rule="evenodd">
        <g id="recipe-book-icon" fill="#4AC29A" fill-rule="nonzero">
            <path d="M448,360 L448,24 C448,10.7 437.3,0 424,0 L96,0 C43,0 0,43 0,96 L0,416 C0,469 43,512 96,512 L424,512 C437.3,512 448,501.3 448,488 L448,472 C448,464.5 444.5,457.7 439.1,453.3 C434.9,437.9 434.9,394 439.1,378.6 C444.5,374.3 448,367.5 448,360 Z M128,134 C128,130.7 130.7,128 134,128 L346,128 C349.3,128 352,130.7 352,134 L352,154 C352,157.3 349.3,160 346,160 L134,160 C130.7,160 128,157.3 128,154 L128,134 Z M128,198 C128,194.7 130.7,192 134,192 L346,192 C349.3,192 352,194.7 352,198 L352,218 C352,221.3 349.3,224 346,224 L134,224 C130.7,224 128,221.3 128,218 L128,198 Z M381.4,448 L96,448 C78.3,448 64,433.7 64,416 C64,398.4 78.4,384 96,384 L381.4,384 C379.5,401.1 379.5,430.9 381.4,448 Z" id="Shape"></path>
        </g>
    </g>
</svg>